<svg xmlns="http://www.w3.org/2000/svg" width="25.255" height="25.255" viewBox="0 0 25.255 25.255">
    <g>
        <g>
            <path fill="#4b4b4b" d="M14.234 8.121l1.274-5.606a.647.647 0 0 0-.631-.79H4.291L4.044.517A.647.647 0 0 0 3.41 0H.647A.647.647 0 0 0 0 .647v.431a.647.647 0 0 0 .647.647H2.53l1.893 9.256a1.509 1.509 0 1 0 1.807.231h5.65a1.509 1.509 0 1 0 1.714-.28l.149-.654a.647.647 0 0 0-.631-.79H5.879L5.7 8.624h7.9a.647.647 0 0 0 .634-.503z" transform="translate(2.526 7.503)"/>
        </g>
    </g>
    <path fill="none" d="M0 0H25.255V25.255H0z"/>
</svg>
