<svg xmlns="http://www.w3.org/2000/svg" width="25.255" height="25.255" viewBox="0 0 25.255 25.255">
    <g>
        <path fill="#fff" d="M20.083 70.223A11.25 11.25 0 0 0 10.1 64a11.252 11.252 0 0 0-9.98 6.223 1.135 1.135 0 0 0 0 1.024 11.25 11.25 0 0 0 9.98 6.223 11.252 11.252 0 0 0 9.98-6.223 1.135 1.135 0 0 0 0-1.024zM10.1 75.786a5.051 5.051 0 1 1 5.051-5.051 5.051 5.051 0 0 1-5.051 5.051zm0-8.418a3.344 3.344 0 0 0-.888.133 1.678 1.678 0 0 1-2.347 2.347 3.36 3.36 0 1 0 3.234-2.48z" transform="translate(2.525 5.892) translate(-.001 -64)"/>
    </g>
    <path fill="none" d="M0 0H25.255V25.255H0z"/>
</svg>
