<svg xmlns="http://www.w3.org/2000/svg" width="25.255" height="25.255" viewBox="0 0 25.255 25.255">
    <path fill="none" d="M0 0H25.255V25.255H0z"/>
    <g transform="translate(2.525 2.629)">
        <circle cx="10.102" cy="10.102" r="10.102" fill="#e0a459"/>
        <path fill="#fff" d="M11.322 67.508A6.342 6.342 0 0 0 5.7 64a6.343 6.343 0 0 0-5.631 3.508.64.64 0 0 0 0 .577A6.342 6.342 0 0 0 5.7 71.593a6.343 6.343 0 0 0 5.626-3.508.64.64 0 0 0 0-.577zM5.7 70.644A2.847 2.847 0 1 1 8.543 67.8 2.848 2.848 0 0 1 5.7 70.644zm0-4.746a1.886 1.886 0 0 0-.5.075.946.946 0 0 1-1.328 1.327A1.894 1.894 0 1 0 5.7 65.9z" transform="translate(4.407 -57.695)"/>
    </g>
</svg>
