<svg xmlns="http://www.w3.org/2000/svg" width="25.255" height="25.255" viewBox="0 0 25.255 25.255">
    <g>
        <g>
            <g fill="none">
                <path d="M10.1 0A10.1 10.1 0 1 1 0 10.1 10.1 10.1 0 0 1 10.1 0z" transform="translate(2.526 2.526)"/>
                <path fill="#d18d38" d="M10.102 1C5.083 1 1 5.083 1 10.102s4.083 9.102 9.102 9.102 9.102-4.083 9.102-9.102S15.121 1 10.102 1m0-1c5.58 0 10.102 4.523 10.102 10.102 0 5.58-4.523 10.102-10.102 10.102C4.522 20.204 0 15.681 0 10.102 0 4.522 4.523 0 10.102 0z" transform="translate(2.526 2.526)"/>
            </g>
            <path fill="#d18d38" d="M9.024 32.614a2.965 2.965 0 0 0-3.984.3 2.963 2.963 0 0 0-3.984-.3 2.978 2.978 0 0 0-.209 4.354L4.3 40.487a1.034 1.034 0 0 0 1.48 0l3.453-3.518a2.981 2.981 0 0 0-.209-4.355zm-.465 3.691l-3.453 3.518a.081.081 0 0 1-.134 0L1.52 36.305a2.03 2.03 0 0 1 .144-2.967 2 2 0 0 1 2.687.207l.689.7.689-.7a2 2 0 0 1 2.687-.209 2.039 2.039 0 0 1 .143 2.969z" transform="translate(2.526 2.526) translate(5.063 -25.566)"/>
        </g>
    </g>
    <path fill="none" d="M0 0H25.255V25.255H0z"/>
</svg>
