<svg xmlns="http://www.w3.org/2000/svg" width="50" height="50" viewBox="0 0 50 50">
    <g>
        <g transform="translate(0 .148)">
            <circle cx="25" cy="25" r="25" fill="#e0a459" transform="translate(0 -.148)"/>
            <path fill="#fff" d="M12.617 38.006a6.505 6.505 0 1 0 6.505 6.505 6.5 6.5 0 0 0-6.505-6.505zm0 10.735a4.229 4.229 0 1 1 4.229-4.229 4.237 4.237 0 0 1-4.229 4.229zm8.289-11a1.517 1.517 0 1 1-1.517-1.517 1.514 1.514 0 0 1 1.517 1.516zm4.309 1.54a7.509 7.509 0 0 0-2.05-5.316 7.558 7.558 0 0 0-5.316-2.05c-2.095-.119-8.374-.119-10.469 0a7.548 7.548 0 0 0-5.316 2.044 7.534 7.534 0 0 0-2.05 5.316c-.114 2.094-.114 8.373 0 10.468a7.509 7.509 0 0 0 2.05 5.316 7.568 7.568 0 0 0 5.316 2.05c2.095.119 8.374.119 10.469 0a7.509 7.509 0 0 0 5.316-2.05 7.559 7.559 0 0 0 2.05-5.316c.119-2.095.119-8.368 0-10.463zm-2.706 12.71A4.282 4.282 0 0 1 20.1 54.4c-1.67.662-5.634.51-7.479.51s-5.821.15-7.483-.51a4.282 4.282 0 0 1-2.412-2.412c-.662-1.67-.51-5.634-.51-7.479s-.147-5.815.51-7.479a4.282 4.282 0 0 1 2.412-2.412c1.67-.662 5.634-.51 7.479-.51s5.815-.147 7.479.51a4.282 4.282 0 0 1 2.412 2.412c.662 1.67.51 5.634.51 7.479s.153 5.818-.509 7.482z" transform="translate(12.766 -19.137)"/>
        </g>
    </g>
</svg>
