<svg xmlns="http://www.w3.org/2000/svg" width="20.004" height="20" viewBox="0 0 20.004 20">
    <path fill="#fff" d="M9.929 36.7a5.128 5.128 0 1 0 5.128 5.128A5.12 5.12 0 0 0 9.929 36.7zm0 8.461a3.334 3.334 0 1 1 3.334-3.334 3.34 3.34 0 0 1-3.334 3.334zm6.534-8.671a1.2 1.2 0 1 1-1.2-1.2 1.193 1.193 0 0 1 1.2 1.197zm3.4 1.214a5.919 5.919 0 0 0-1.616-4.191 5.958 5.958 0 0 0-4.194-1.613c-1.651-.094-6.6-.094-8.252 0a5.949 5.949 0 0 0-4.191 1.611A5.938 5.938 0 0 0 0 37.7c-.1 1.648-.1 6.6 0 8.249a5.919 5.919 0 0 0 1.616 4.191A5.965 5.965 0 0 0 5.8 51.755c1.651.094 6.6.094 8.252 0a5.919 5.919 0 0 0 4.191-1.616 5.958 5.958 0 0 0 1.616-4.191c.094-1.651.094-6.6 0-8.247zM17.726 47.72a3.375 3.375 0 0 1-1.9 1.9c-1.317.522-4.44.4-5.9.4s-4.583.116-5.9-.4a3.375 3.375 0 0 1-1.9-1.9c-.522-1.317-.4-4.44-.4-5.9s-.116-4.583.4-5.9a3.375 3.375 0 0 1 1.9-1.9c1.317-.522 4.44-.4 5.9-.4s4.583-.116 5.9.4a3.375 3.375 0 0 1 1.9 1.9c.522 1.317.4 4.44.4 5.9s.122 4.588-.4 5.9z" transform="translate(.075 -31.825)"/>
</svg>
