<svg xmlns="http://www.w3.org/2000/svg" width="72.263" height="57.811" viewBox="0 0 72.263 57.811">
    <path fill="#e0a459" d="M70.457 39.745H68.65V27.539a5.42 5.42 0 0 0-1.592-3.828l-11.28-11.28a5.42 5.42 0 0 0-3.828-1.592h-4.979V5.42A5.421 5.421 0 0 0 41.551 0H12.646a5.421 5.421 0 0 0-5.42 5.42v5.42H.9a.906.906 0 0 0-.9.9v1.807a.906.906 0 0 0 .9.9h30.715a.906.906 0 0 1 .9.9v1.807a.906.906 0 0 1-.9.9H4.516a.906.906 0 0 0-.9.9v1.807a.906.906 0 0 0 .9.9H28a.906.906 0 0 1 .9.9v1.807a.906.906 0 0 1-.9.9H.9a.906.906 0 0 0-.9.9V28a.906.906 0 0 0 .9.9h23.489a.906.906 0 0 1 .9.9v1.807a.906.906 0 0 1-.9.9H7.226v14.464a10.84 10.84 0 0 0 21.679 0h14.453a10.84 10.84 0 1 0 21.679 0h5.42a1.812 1.812 0 0 0 1.807-1.807v-3.613a1.812 1.812 0 0 0-1.807-1.806zM18.066 52.391a5.42 5.42 0 1 1 5.42-5.42 5.421 5.421 0 0 1-5.42 5.42zm36.132 0a5.42 5.42 0 1 1 5.42-5.42 5.421 5.421 0 0 1-5.418 5.42zm9.033-23.486h-16.26V16.259h4.979l11.28 11.28z"/>
</svg>
