<svg xmlns="http://www.w3.org/2000/svg" width="15.582" height="11.686" viewBox="0 0 15.582 11.686">
    <path fill="#4b4b4b" d="M14.121 64H1.461A1.461 1.461 0 0 0 0 65.461v8.765a1.461 1.461 0 0 0 1.461 1.461h12.66a1.461 1.461 0 0 0 1.461-1.461v-8.765A1.461 1.461 0 0 0 14.121 64zm0 1.461V66.7c-.682.556-1.77 1.42-4.1 3.241-.513.4-1.528 1.372-2.234 1.36-.706.011-1.722-.957-2.234-1.36-2.325-1.821-3.413-2.685-4.1-3.241v-1.239zm-12.66 8.765v-5.649c.7.555 1.686 1.335 3.194 2.515.665.524 1.83 1.679 3.137 1.672s2.45-1.132 3.136-1.672c1.507-1.18 2.5-1.96 3.194-2.515v5.648z" transform="translate(0 -64)"/>
</svg>
