<svg xmlns="http://www.w3.org/2000/svg" width="50" height="50" viewBox="0 0 50 50">
    <g>
        <g transform="translate(.074 .148)">
            <circle cx="25" cy="25" r="25" fill="#e0a459" transform="translate(-.074 -.148)"/>
            <path fill="#fff" d="M26.286 64H2.719A2.719 2.719 0 0 0 0 66.719v16.315a2.719 2.719 0 0 0 2.719 2.719h23.567A2.719 2.719 0 0 0 29 83.034V66.719A2.719 2.719 0 0 0 26.286 64zm0 2.719v2.312c-1.27 1.034-3.3 2.643-7.624 6.033-.954.75-2.844 2.553-4.159 2.532-1.315.021-3.205-1.782-4.159-2.532-4.328-3.389-6.354-5-7.624-6.033v-2.312zM2.719 83.034V72.52C4.017 73.554 5.858 75 8.664 77.2c1.238.975 3.407 3.126 5.838 3.113 2.42.013 4.561-2.107 5.838-3.113 2.806-2.2 4.647-3.648 5.945-4.682v10.516z" transform="translate(10.877 -49.725)"/>
        </g>
    </g>
</svg>
