<svg xmlns="http://www.w3.org/2000/svg" width="50" height="50" viewBox="0 0 50 50">
    <g>
        <g transform="translate(.148 .148)">
            <circle cx="25" cy="25" r="25" fill="#e0a459" transform="translate(-.148 -.148)"/>
            <path fill="none" stroke="#fff" stroke-width="3px" d="M21.479 15.63l-4.837-2.073a1.036 1.036 0 0 0-1.209.3l-2.142 2.617A16.006 16.006 0 0 1 5.64 8.82l2.617-2.142a1.034 1.034 0 0 0 .3-1.209L6.482.633a1.043 1.043 0 0 0-1.188-.6L.8 1.069a1.036 1.036 0 0 0-.8 1.01 20.035 20.035 0 0 0 20.037 20.037 1.036 1.036 0 0 0 1.01-.8l1.036-4.491a1.049 1.049 0 0 0-.6-1.192z" transform="translate(13.596 14.135)"/>
        </g>
    </g>
</svg>
