<svg xmlns="http://www.w3.org/2000/svg" width="18" height="18" fill="none" viewBox="0 0 18 18">
    <path fill="#282B2D" d="M11.59 14.644c-.09.09-.212.141-.34.141-.128 0-.25-.05-.34-.14L5.283 9.018c-.09-.09-.14-.213-.14-.34 0-.128.05-.25.14-.341l5.625-5.625c.044-.048.098-.086.157-.112.059-.026.123-.04.188-.042.064 0 .129.011.189.035.06.025.114.06.16.107.046.045.082.1.106.16.024.06.036.124.035.189-.001.065-.015.129-.041.188-.027.059-.065.112-.112.156L6.306 8.678l5.285 5.285c.09.09.14.213.14.34 0 .128-.05.25-.14.341z"/>
</svg>
