<svg xmlns="http://www.w3.org/2000/svg" width="24" height="24" fill="none" viewBox="0 0 24 24">
    <path fill="#707070" d="M20.71 19.29l-3.4-3.39c1.097-1.398 1.692-3.123 1.69-4.9 0-1.582-.47-3.129-1.348-4.445-.88-1.315-2.129-2.34-3.59-2.946-1.462-.606-3.07-.764-4.623-.455-1.552.308-2.977 1.07-4.096 2.19-1.119 1.118-1.88 2.543-2.19 4.095-.308 1.552-.15 3.16.456 4.623.605 1.461 1.63 2.71 2.946 3.59C7.871 18.53 9.418 19 11 19c1.777.002 3.502-.593 4.9-1.69l3.39 3.4c.093.094.204.168.325.219.122.05.253.077.385.077s.263-.026.385-.077c.121-.05.232-.125.325-.219.094-.093.168-.204.219-.325.05-.122.077-.253.077-.385s-.026-.263-.077-.385c-.05-.121-.125-.232-.219-.325zM5 11c0-1.187.352-2.347 1.011-3.333.66-.987 1.597-1.756 2.693-2.21 1.096-.454 2.303-.573 3.466-.342 1.164.232 2.233.803 3.073 1.642.839.84 1.41 1.909 1.642 3.072.231 1.164.112 2.37-.342 3.467s-1.223 2.034-2.21 2.693C13.347 16.649 12.187 17 11 17c-1.591 0-3.117-.632-4.243-1.757C5.632 14.117 5 12.59 5 11z"/>
</svg>
